<svg width="54" height="54" viewBox="0 0 54 54" fill="none" xmlns="http://www.w3.org/2000/svg">
<path fill-rule="evenodd" clip-rule="evenodd" d="M27 3.47625C13.3763 3.47625 2.34675 14.4495 2.34675 27.963C2.34675 37.8855 8.2935 46.4243 16.8525 50.265C17.748 50.6678 18.6233 50.508 19.3073 49.995C19.6855 49.7004 19.9904 49.3223 20.1981 48.8901C20.4058 48.458 20.5106 47.9837 20.5042 47.5043V46.2217L17.451 45.8077C17.4284 45.8047 17.4059 45.8009 17.3835 45.7965C15.7005 45.468 14.5642 44.8763 13.7318 44.0235C13.032 43.3058 12.6045 42.4463 12.2423 41.7173L12.1163 41.463C11.7814 40.7646 11.4158 40.0815 11.0205 39.4155C10.7167 38.934 10.4805 38.6865 10.2465 38.5312C9.6525 38.1375 9.081 37.4692 9.081 36.6345C9.07897 36.3942 9.13041 36.1565 9.23159 35.9386C9.33277 35.7207 9.48115 35.528 9.666 35.3745C10.0149 35.0983 10.4497 34.9534 10.8945 34.965C11.394 34.965 11.8643 35.118 12.2557 35.2935C12.6562 35.4735 13.0545 35.712 13.4257 35.9595C14.3302 36.5625 15.2212 37.2757 15.975 38.1555C16.7603 39.069 17.316 39.6495 18.153 39.7687C18.8415 39.8677 19.5435 39.87 20.0903 39.8452C20.1662 39.4124 20.2916 38.9896 20.4638 38.5853C19.796 38.4294 19.1372 38.2371 18.4905 38.0093C17.019 37.4872 15.3787 36.675 14.2762 35.4443C13.0657 34.0898 12.3165 32.8815 11.898 31.4685C11.4908 30.0915 11.4233 28.5998 11.4233 26.7638C11.4233 23.9513 12.6405 21.582 13.554 20.3242C13.203 19.2231 12.9508 18.0929 12.8003 16.947C12.7006 16.2244 12.7013 15.4914 12.8025 14.769C12.915 14.1097 13.1962 13.2997 13.9365 12.8115C14.6497 12.3367 15.4867 12.357 16.1392 12.4785C16.8165 12.6067 17.5208 12.888 18.1687 13.2097C19.224 13.7317 20.2725 14.4293 21.0578 15.021C22.4123 14.6228 24.8085 14.1097 26.9753 14.0625H27.0247C29.1937 14.1097 31.482 14.6228 32.8027 15.0188C33.5903 14.4293 34.6365 13.7295 35.6895 13.2097C36.3375 12.888 37.0395 12.6067 37.719 12.4785C38.3715 12.357 39.2085 12.3368 39.924 12.8092C40.662 13.2997 40.9455 14.1097 41.0557 14.769C41.1705 15.4553 41.1435 16.2225 41.0557 16.947C40.9059 18.0928 40.6544 19.223 40.3042 20.3242C41.2178 21.5842 42.435 23.9535 42.435 26.7638C42.435 28.5998 42.3675 30.0915 41.9625 31.4662C41.5417 32.8837 40.7925 34.0898 39.582 35.4443C38.4795 36.675 36.8392 37.4872 35.3677 38.0093C34.5867 38.2838 33.7884 38.507 32.9782 38.6775C33.255 39.5145 33.354 40.1917 33.354 40.581V47.5335C33.354 48.591 33.8467 49.4933 34.5465 50.0198C35.226 50.535 36.099 50.6948 36.9945 50.3032C45.6345 46.4963 51.651 37.935 51.651 27.9608C51.651 14.4495 40.626 3.47625 27 3.47625ZM21.321 42.0975C20.736 42.1807 21.3188 42.0975 21.3188 42.0975H21.312L21.294 42.102L21.2288 42.111C20.8946 42.1503 20.5591 42.178 20.223 42.1943C19.5885 42.2235 18.7178 42.2257 17.8245 42.0975C16.0448 41.8455 14.9625 40.5855 14.2628 39.7665L14.1952 39.69C13.9665 39.4246 13.7207 39.1743 13.4595 38.9408C13.6912 39.3682 13.932 39.8452 14.1908 40.3582L14.2133 40.4033L14.328 40.6373C14.7218 41.4202 14.9805 41.9422 15.4102 42.3787C15.8287 42.8062 16.4812 43.2203 17.7997 43.4813L21.8363 44.028C22.1182 44.0662 22.3767 44.2053 22.5637 44.4197C22.7508 44.634 22.8536 44.909 22.8532 45.1935V47.5043C22.8532 49.3043 22.0095 50.9085 20.7157 51.8805C20.0365 52.3995 19.2285 52.7233 18.3788 52.8168C17.529 52.9104 16.6699 52.7703 15.894 52.4115C6.5295 48.2108 0 38.8575 0 27.963C0 13.131 12.0982 1.125 27 1.125C41.9017 1.125 54 13.131 54 27.963C54 38.9137 47.3873 48.2917 37.9418 52.4565C37.1652 52.8084 36.3076 52.9426 35.4606 52.8448C34.6137 52.7469 33.8093 52.4206 33.1335 51.9007C32.4653 51.3863 31.9254 50.7241 31.5561 49.966C31.1868 49.2079 30.9982 48.3745 31.005 47.5312V40.5788C31.005 40.4212 30.8948 39.5122 30.2805 38.2905C30.1957 38.1211 30.153 37.9337 30.156 37.7443C30.159 37.5549 30.2075 37.369 30.2976 37.2023C30.3877 37.0357 30.5166 36.8931 30.6734 36.7869C30.8302 36.6806 31.0103 36.6137 31.1985 36.5918C31.9703 36.5063 33.2707 36.2565 34.5825 35.7907C35.919 35.3182 37.1182 34.6702 37.8315 33.8737C38.8912 32.6903 39.42 31.7812 39.7103 30.798C40.0117 29.7787 40.0882 28.593 40.0882 26.7638C40.0882 24.1965 38.7383 22.0387 38.1172 21.3435C37.9763 21.1864 37.8802 20.9942 37.839 20.7872C37.7978 20.5802 37.8131 20.3659 37.8833 20.1667C38.1982 19.2803 38.5807 17.901 38.727 16.6702C38.799 16.0515 38.8035 15.534 38.7405 15.1605C38.7264 15.0239 38.6851 14.8916 38.619 14.7712C38.4641 14.7444 38.3052 14.7513 38.1533 14.7915C37.7708 14.8635 37.2825 15.0435 36.729 15.318C35.6265 15.8625 34.479 16.668 33.768 17.244C33.6112 17.3712 33.4242 17.4557 33.2251 17.4892C33.0259 17.5227 32.8215 17.5041 32.6318 17.4352C30.81 16.8393 28.9151 16.4964 27 16.416C24.7342 16.47 22.1198 17.1135 21.2265 17.4352C21.0367 17.5041 20.8323 17.5227 20.6332 17.4892C20.4341 17.4557 20.247 17.3712 20.0903 17.244C19.1708 16.5037 18.1787 15.8585 17.1292 15.318C16.6786 15.0814 16.1991 14.9044 15.7028 14.7915C15.5515 14.7517 15.3934 14.7448 15.2392 14.7712C15.1731 14.8916 15.1318 15.0239 15.1178 15.1605C15.0547 15.534 15.0592 16.0515 15.1312 16.6702C15.2775 17.901 15.6622 19.2803 15.975 20.1667C16.1168 20.5718 16.029 21.0217 15.741 21.3435C15.12 22.0387 13.77 24.1965 13.77 26.7638C13.77 28.5908 13.8465 29.7787 14.148 30.798C14.4405 31.7812 14.967 32.688 16.0245 33.8737C16.74 34.6702 17.937 35.3182 19.2758 35.7907C20.371 36.1783 21.5048 36.4469 22.6575 36.5918C22.8947 36.6172 23.1185 36.7143 23.2991 36.87C23.4798 37.0258 23.6087 37.2328 23.6688 37.4637C23.7289 37.6945 23.7173 37.9381 23.6355 38.1622C23.5537 38.3863 23.4056 38.5801 23.211 38.718C22.8398 38.9835 22.5945 39.4605 22.4573 40.0118C22.3864 40.2956 22.3442 40.5858 22.3313 40.878V40.9207C22.3341 41.206 22.2332 41.4826 22.0474 41.6991C21.8616 41.9156 21.6034 42.0571 21.321 42.0975Z" fill="url(#paint0_linear_1102_726)"/>
<defs>
<linearGradient id="paint0_linear_1102_726" x1="7.95536" y1="8.74901" x2="52.0423" y2="54.752" gradientUnits="userSpaceOnUse">
<stop stop-color="#ECD92F"/>
<stop offset="1" stop-color="#EC2F46"/>
</linearGradient>
</defs>
</svg>
