<svg width="71" height="71" viewBox="0 0 71 71" fill="none" xmlns="http://www.w3.org/2000/svg">
<path d="M35.5 2.21875C17.1193 2.21875 2.21875 17.1193 2.21875 35.5C2.21875 53.8807 17.1193 68.7812 35.5 68.7812C53.8807 68.7812 68.7812 53.8807 68.7812 35.5C68.7812 17.1193 53.8807 2.21875 35.5 2.21875ZM55.8956 55.8956C50.8383 60.9378 44.0849 63.9165 36.9513 64.2514C29.8177 64.5863 22.815 62.2533 17.3075 57.707C11.8001 53.1608 8.18256 46.7269 7.15975 39.6591C6.13693 32.5913 7.78214 25.3958 11.7748 19.4748C15.7674 13.5537 21.8215 9.33121 28.7574 7.63004C35.6932 5.92887 43.014 6.87088 49.2933 10.2725C55.5725 13.6742 60.3604 19.2918 62.724 26.0307C65.0876 32.7697 64.8576 40.1473 62.0788 46.7259C60.6306 50.1538 58.5307 53.268 55.8956 55.8956Z" fill="url(#paint0_linear_1102_1256)"/>
<path d="M19.7354 33.4234L22.8732 36.5611L33.281 26.1535V52.1404H37.7185V26.1535L48.1262 36.5611L51.2641 33.4234L35.4997 17.6592L19.7354 33.4234Z" fill="url(#paint1_linear_1102_1256)"/>
<defs>
<linearGradient id="paint0_linear_1102_1256" x1="12.0248" y1="12.0248" x2="68.7812" y2="68.7812" gradientUnits="userSpaceOnUse">
<stop stop-color="#ECD92F"/>
<stop offset="1" stop-color="#EC2F46"/>
</linearGradient>
<linearGradient id="paint1_linear_1102_1256" x1="24.3802" y1="22.739" x2="53.6642" y2="49.5155" gradientUnits="userSpaceOnUse">
<stop stop-color="#ECD92F"/>
<stop offset="1" stop-color="#EC2F46"/>
</linearGradient>
</defs>
</svg>
