<svg width="46" height="44" viewBox="0 0 46 44" fill="none" xmlns="http://www.w3.org/2000/svg">
<path d="M27.7916 17.6669L27.8443 17.6669C29.7951 17.6823 31.6602 18.4303 33.0375 19.7476C34.4268 21.0765 35.2061 22.8759 35.2083 24.7503V33C35.2083 33.1731 35.1365 33.3416 35.0048 33.4675C34.8728 33.5939 34.6914 33.6667 34.5 33.6667C34.3086 33.6667 34.1272 33.5939 33.9952 33.4675C33.8635 33.3416 33.7917 33.1731 33.7917 33V24.75C33.7917 23.2213 33.1567 21.7576 32.0303 20.6803C30.9044 19.6032 29.3795 19 27.7917 19C26.2039 19 24.679 19.6032 23.553 20.6803C22.4266 21.7576 21.7917 23.2213 21.7917 24.75V33C21.7917 33.1731 21.7199 33.3416 21.5882 33.4675C21.4561 33.5939 21.2747 33.6667 21.0833 33.6667C20.892 33.6667 20.7106 33.5939 20.5785 33.4675C20.4468 33.3416 20.375 33.1731 20.375 33V18.3333C20.375 18.1602 20.4468 17.9918 20.5785 17.8658C20.7106 17.7395 20.892 17.6667 21.0833 17.6667C21.2747 17.6667 21.4561 17.7395 21.5882 17.8658C21.7199 17.9918 21.7917 18.1602 21.7917 18.3333V19.9075V20.5498L22.2259 20.0765C22.9197 19.3202 23.775 18.7136 24.7349 18.2978C25.6949 17.882 26.7371 17.6668 27.7916 17.6669ZM44.3333 2.75V2.74967C44.3329 2.43679 44.2027 2.1392 43.9751 1.92149C43.7479 1.70415 43.4421 1.58371 43.1253 1.58333H43.125L2.875 1.58333L2.8747 1.58333C2.55793 1.58371 2.25213 1.70415 2.0249 1.92149C1.7973 2.1392 1.66707 2.43679 1.66667 2.74967V2.75L1.66667 41.25L1.66667 41.2503C1.66707 41.5632 1.7973 41.8608 2.0249 42.0785C2.25213 42.2959 2.55793 42.4163 2.8747 42.4167H2.875H43.125H43.1253C43.4421 42.4163 43.7479 42.2959 43.9751 42.0785C44.2027 41.8608 44.3329 41.5632 44.3333 41.2503V41.25V2.75ZM15.0833 11C15.0833 11.3106 14.9871 11.6152 14.8054 11.8754C14.6235 12.1357 14.3639 12.3402 14.0581 12.4614C13.7521 12.5826 13.4149 12.6144 13.0895 12.5525C12.7641 12.4906 12.4666 12.338 12.2342 12.1157C12.0019 11.8935 11.845 11.6118 11.7816 11.3068C11.7182 11.0019 11.7506 10.6857 11.8753 10.3978C12.0001 10.1097 12.2121 9.86161 12.4865 9.68629C12.7609 9.5109 13.0846 9.41667 13.4167 9.41667C13.8622 9.41667 14.2874 9.58606 14.5991 9.8843C14.9106 10.1822 15.0833 10.5838 15.0833 11ZM12.9118 17.866C13.0439 17.7397 13.2253 17.6669 13.4167 17.6669C13.608 17.6669 13.7894 17.7397 13.9215 17.866C14.0532 17.992 14.125 18.1604 14.125 18.3336V33.0002C14.125 33.1734 14.0532 33.3418 13.9215 33.4678C13.7894 33.5941 13.608 33.6669 13.4167 33.6669C13.2253 33.6669 13.0439 33.5941 12.9118 33.4678C12.7801 33.3418 12.7083 33.1734 12.7083 33.0002V18.3336C12.7083 18.1604 12.7801 17.992 12.9118 17.866ZM45.75 2.7503V41.2497C45.7492 41.9089 45.4752 42.5433 44.9841 43.0129C44.4927 43.483 43.8242 43.7492 43.1247 43.75H2.87528C2.17577 43.7492 1.50725 43.483 1.01585 43.0129C0.524869 42.5433 0.250842 41.909 0.25 41.2498V2.75016C0.250842 2.091 0.524869 1.45669 1.01585 0.987055C1.50722 0.517053 2.17568 0.250812 2.87515 0.25H43.1249C43.8243 0.250812 44.4928 0.517053 44.9841 0.987055C45.4752 1.45673 45.7492 2.09109 45.75 2.7503Z" fill="url(#paint0_linear_1117_886)" stroke="url(#paint1_linear_1117_886)" stroke-width="0.5"/>
<defs>
<linearGradient id="paint0_linear_1117_886" x1="6.77679" y1="6.48214" x2="44.2576" y2="45.6666" gradientUnits="userSpaceOnUse">
<stop stop-color="#ECD92F"/>
<stop offset="1" stop-color="#EC2F46"/>
</linearGradient>
<linearGradient id="paint1_linear_1117_886" x1="6.77679" y1="6.48214" x2="44.2576" y2="45.6666" gradientUnits="userSpaceOnUse">
<stop stop-color="#ECD92F"/>
<stop offset="1" stop-color="#EC2F46"/>
</linearGradient>
</defs>
</svg>
